# xmcd
#
# Track frame offsets: 
#        150
#        21588
#        41656
#        62855
#        84855
#        103887
#        128526
#        148543
#        171086
#        195421
#        215882
#
# Disc length: 3164 seconds
#
# Revision: 0
# Processed by: cddbd v1.5.2PL0 Copyright (c) Steve Scherf et al.
# Submitted via: ExactAudioCopyFreeDBPlugin 1.0
#
DISCID=9d0c5a0b
DTITLE=Cam Ly - Khung troi  ngay xua
DYEAR=1900
DGENRE=
TTITLE0=Khung troi ngay xua
TTITLE1=Dan Truong - Khuc ca xuan
TTITLE2=Le Uyen Nhy - Chut tinh mong manh
TTITLE3=Minh Thuan - Tuong tu
TTITLE4=Pho xuan
TTITLE5=Dan Truong - Bai ca mua xuan
TTITLE6=Xa mai tinh dau
TTITLE7=Thanh Thanh - Nang tien xau xa
TTITLE8=Minh Thuan - Tinh phieu lang
TTITLE9=Le Uyen Nhy - Buoc tinh ta
TTITLE10=Khung troi ngay xua
EXTD=
EXTT0=
EXTT1=
EXTT2=
EXTT3=
EXTT4=
EXTT5=
EXTT6=
EXTT7=
EXTT8=
EXTT9=
EXTT10=
PLAYORDER=
